<svg width="1200" height="480" viewBox="0 0 1200 480" fill="none" xmlns="http://www.w3.org/2000/svg">
<rect width="1200" height="480" fill="#41999A"/>
<g clip-path="url(#clip0_604_299)">
<path d="M42 362.382C42 362.71 42.2403 362.974 42.5395 362.974H279.335C279.634 362.974 279.875 362.71 279.875 362.382C279.875 362.054 279.634 361.791 279.335 361.791H42.5395C42.2403 361.791 42 362.054 42 362.382Z" fill="#3F3C57"/>
<path d="M119.259 163.875L121.834 176.753L116.357 194.677L107.533 175.419L108.757 164.247L119.259 163.875Z" fill="#FDB4B4"/>
<path d="M122.313 176.086H107.076V196.261H122.313V176.086Z" fill="#026667"/>
<path d="M116.047 170.362C121.794 170.362 126.453 165.257 126.453 158.959C126.453 152.661 121.794 147.555 116.047 147.555C110.301 147.555 105.642 152.661 105.642 158.959C105.642 165.257 110.301 170.362 116.047 170.362Z" fill="#FDB4B4"/>
<path d="M106.99 167.438C106.99 167.438 99.2336 151.74 106.227 144.186C113.22 136.631 118.834 141.609 118.834 141.609L122.04 141.467C122.04 141.467 122.708 144.232 123.786 142.735C124.864 141.239 126.812 146.689 126.812 146.689C130.428 153.826 117.894 155.424 117.894 155.424C117.894 155.424 118.799 158.584 117.879 159.246C116.959 159.907 114.501 162.397 114.501 162.397L112.301 164.218L110.993 162.034C110.993 162.034 109.627 160.853 108.937 161.349C108.247 161.846 109.197 168.375 109.197 168.375L106.99 167.438Z" fill="#2E2E41"/>
<path d="M94.5071 282.927L90.5288 347.96L100.309 348.323L113.238 283.472L94.5071 282.927Z" fill="#2E2E41"/>
<path d="M118.211 282.563L114.233 347.597L124.013 347.96L136.942 283.108L118.211 282.563Z" fill="#2E2E41"/>
<path d="M92.1114 297.785L97.3178 226.955L89.3336 190.072C88.6453 184.589 91.7975 179.401 96.6627 177.987L104.475 175.715L107.933 171.926L115.798 190.96L120.711 171.94L124.542 174.993L135.904 180.487L135.899 180.616L134.076 225.17L138.145 297.154L137.964 297.157L92.1114 297.785Z" fill="#E8E9EA"/>
<path d="M123.385 347.221L126.217 356.485C126.217 356.485 137.295 358.136 137.468 361.895C137.64 365.653 122.411 363.478 113.494 363.969C104.576 364.46 111.999 353.877 111.999 353.877L112.95 347.796L123.385 347.221Z" fill="#2E2E41"/>
<path d="M100.259 346.554L103.09 355.819C103.09 355.819 114.169 357.469 114.342 361.228C114.514 364.987 99.2849 362.811 90.3675 363.302C81.45 363.793 88.8731 353.21 88.8731 353.21L89.8234 347.129L100.259 346.554Z" fill="#2E2E41"/>
<path d="M86.4424 260.168C86.3223 258.341 86.6032 256.51 87.2617 254.826L85.1482 235.826L93.4273 234.989L94.6795 254.352C95.5115 255.94 95.9845 257.723 96.0589 259.552C96.3024 264.127 94.347 267.971 91.6912 268.141C89.0353 268.311 86.6852 264.741 86.4424 260.168Z" fill="#FDB4B4"/>
<path d="M138.88 262.957C138.778 261.129 139.077 259.301 139.752 257.625L137.828 238.601L146.115 237.863L147.175 257.24C147.991 258.837 148.446 260.626 148.502 262.455C148.7 267.033 146.707 270.854 144.049 270.992C141.392 271.13 139.077 267.533 138.88 262.957Z" fill="#FDB4B4"/>
<path d="M85.1143 252.548L85.0863 252.384L80.7715 227.013L85.8698 185.7C86.3248 182.011 89.3301 179.354 92.7191 179.651C94.489 179.806 96.077 180.726 97.1909 182.242C98.3046 183.757 98.7865 185.654 98.5477 187.582L94.7105 218.567L97.1265 251.708L85.1143 252.548Z" fill="#E8E9EA"/>
<path d="M136.323 251.953L127.648 188.493C127.197 186.633 127.461 184.685 128.395 183.031C129.329 181.376 130.801 180.248 132.54 179.853C135.866 179.099 139.151 181.328 140.02 184.926L148.354 251.156L136.323 251.953Z" fill="#E8E9EA"/>
<path d="M116.053 196.761C116.641 196.761 117.118 196.238 117.118 195.594C117.118 194.949 116.641 194.427 116.053 194.427C115.465 194.427 114.988 194.949 114.988 195.594C114.988 196.238 115.465 196.761 116.053 196.761Z" fill="#D6D7D8"/>
<path d="M116.053 205.598C116.641 205.598 117.118 205.075 117.118 204.431C117.118 203.786 116.641 203.264 116.053 203.264C115.465 203.264 114.988 203.786 114.988 204.431C114.988 205.075 115.465 205.598 116.053 205.598Z" fill="#D6D7D8"/>
<path d="M116.053 214.435C116.641 214.435 117.118 213.912 117.118 213.268C117.118 212.623 116.641 212.101 116.053 212.101C115.465 212.101 114.988 212.623 114.988 213.268C114.988 213.912 115.465 214.435 116.053 214.435Z" fill="#D6D7D8"/>
<path d="M116.053 223.272C116.641 223.272 117.118 222.749 117.118 222.105C117.118 221.46 116.641 220.938 116.053 220.938C115.465 220.938 114.988 221.46 114.988 222.105C114.988 222.749 115.465 223.272 116.053 223.272Z" fill="#D6D7D8"/>
<path d="M116.053 232.109C116.641 232.109 117.118 231.586 117.118 230.942C117.118 230.297 116.641 229.775 116.053 229.775C115.465 229.775 114.988 230.297 114.988 230.942C114.988 231.586 115.465 232.109 116.053 232.109Z" fill="#D6D7D8"/>
<path d="M116.053 240.946C116.641 240.946 117.118 240.423 117.118 239.779C117.118 239.134 116.641 238.612 116.053 238.612C115.465 238.612 114.988 239.134 114.988 239.779C114.988 240.423 115.465 240.946 116.053 240.946Z" fill="#D6D7D8"/>
<path d="M116.053 249.783C116.641 249.783 117.118 249.26 117.118 248.616C117.118 247.971 116.641 247.448 116.053 247.448C115.465 247.448 114.988 247.971 114.988 248.616C114.988 249.26 115.465 249.783 116.053 249.783Z" fill="#D6D7D8"/>
<path d="M116.053 258.62C116.641 258.62 117.118 258.097 117.118 257.453C117.118 256.808 116.641 256.285 116.053 256.285C115.465 256.285 114.988 256.808 114.988 257.453C114.988 258.097 115.465 258.62 116.053 258.62Z" fill="#D6D7D8"/>
<path d="M116.054 265.456L95.9029 262.513L95.5148 262.456L85.2159 236.432L79.0825 220.938H95.0581L116.054 265.456Z" fill="#026667"/>
<path d="M196.851 166.707L209.663 159.015V180.991H194.845L196.851 166.707Z" fill="#2E2E41"/>
<path d="M212.41 171.606L213.592 182.395L205.07 200.992L199.781 183.683L202.268 171.248L212.41 171.606Z" fill="#FDB4B4"/>
<path d="M214.033 183.039H199.319V202.522H214.033V183.039Z" fill="#026667"/>
<path d="M226.171 286.214L230.012 349.016L220.568 349.367L208.082 286.74L226.171 286.214Z" fill="#2E2E41"/>
<path d="M203.28 285.863L207.122 348.665L197.677 349.016L185.192 286.39L203.28 285.863Z" fill="#2E2E41"/>
<path d="M236.149 299.534L235.924 299.533L175.759 299.318L175.813 299.085L191.281 231.922L187.406 198.028C186.672 191.605 189.809 185.534 195.213 182.922L197.164 181.979L200.87 179.025L205.611 197.384L213.203 179.011L216.548 182.675L224.09 184.869C228.792 186.235 231.838 191.248 231.175 196.529L231.167 196.566L219.649 232.585L236.149 299.534Z" fill="#E8E9EA"/>
<path d="M198.284 348.302L208.361 348.857L209.279 354.73C209.279 354.73 216.447 364.95 207.836 364.476C199.224 364.001 184.518 366.102 184.684 362.473C184.851 358.843 195.549 357.249 195.549 357.249L198.284 348.302Z" fill="#2E2E41"/>
<path d="M220.616 347.658L230.694 348.213L231.611 354.086C231.611 354.086 238.78 364.306 230.168 363.831C221.557 363.357 206.85 365.458 207.017 361.829C207.183 358.199 217.882 356.605 217.882 356.605L220.616 347.658Z" fill="#2E2E41"/>
<path d="M229.845 263.592C229.61 268.008 227.341 271.456 224.776 271.292C222.211 271.128 220.323 267.415 220.558 262.997C220.63 261.231 221.087 259.509 221.89 257.976L223.099 239.277L231.094 240.086L229.053 258.434C229.689 260.059 229.961 261.828 229.845 263.592Z" fill="#FDB4B4"/>
<path d="M188.759 261.913C188.439 266.323 186.103 269.716 183.542 269.493C180.981 269.269 179.165 265.513 179.486 261.101C179.592 259.337 180.082 257.626 180.916 256.112L182.488 237.446L190.465 238.441L188.068 256.737C188.672 258.377 188.909 260.152 188.759 261.913Z" fill="#FDB4B4"/>
<path d="M231.132 256.241L219.521 255.428L219.535 255.238L221.854 223.418L218.149 193.498C217.918 191.634 218.384 189.801 219.46 188.336C220.537 186.871 222.072 185.982 223.783 185.832C227.059 185.549 229.963 188.113 230.403 191.678L235.327 231.575L235.322 231.605L231.132 256.241Z" fill="#E8E9EA"/>
<path d="M190.692 255.022L179.062 254.251L179.088 254.05L187.108 190.309C187.951 186.808 191.128 184.655 194.342 185.383C196.022 185.764 197.445 186.855 198.348 188.454C199.251 190.054 199.506 191.936 199.066 193.754L190.692 255.022Z" fill="#E8E9EA"/>
<path d="M205.364 203.005C205.932 203.005 206.392 202.501 206.392 201.878C206.392 201.256 205.932 200.751 205.364 200.751C204.796 200.751 204.335 201.256 204.335 201.878C204.335 202.501 204.796 203.005 205.364 203.005Z" fill="#D6D7D8"/>
<path d="M205.364 211.539C205.932 211.539 206.392 211.034 206.392 210.412C206.392 209.789 205.932 209.285 205.364 209.285C204.796 209.285 204.335 209.789 204.335 210.412C204.335 211.034 204.796 211.539 205.364 211.539Z" fill="#D6D7D8"/>
<path d="M205.364 220.073C205.932 220.073 206.392 219.568 206.392 218.945C206.392 218.323 205.932 217.818 205.364 217.818C204.796 217.818 204.335 218.323 204.335 218.945C204.335 219.568 204.796 220.073 205.364 220.073Z" fill="#D6D7D8"/>
<path d="M205.364 228.606C205.932 228.606 206.392 228.102 206.392 227.479C206.392 226.857 205.932 226.352 205.364 226.352C204.796 226.352 204.335 226.857 204.335 227.479C204.335 228.102 204.796 228.606 205.364 228.606Z" fill="#D6D7D8"/>
<path d="M205.364 237.14C205.932 237.14 206.392 236.635 206.392 236.013C206.392 235.39 205.932 234.886 205.364 234.886C204.796 234.886 204.335 235.39 204.335 236.013C204.335 236.635 204.796 237.14 205.364 237.14Z" fill="#D6D7D8"/>
<path d="M205.364 245.674C205.932 245.674 206.392 245.169 206.392 244.547C206.392 243.924 205.932 243.42 205.364 243.42C204.796 243.42 204.335 243.924 204.335 244.547C204.335 245.169 204.796 245.674 205.364 245.674Z" fill="#D6D7D8"/>
<path d="M205.364 254.208C205.932 254.208 206.392 253.703 206.392 253.08C206.392 252.458 205.932 251.953 205.364 251.953C204.796 251.953 204.335 252.458 204.335 253.08C204.335 253.703 204.796 254.208 205.364 254.208Z" fill="#D6D7D8"/>
<path d="M205.364 262.741C205.932 262.741 206.392 262.237 206.392 261.614C206.392 260.992 205.932 260.487 205.364 260.487C204.796 260.487 204.335 260.992 204.335 261.614C204.335 262.237 204.796 262.741 205.364 262.741Z" fill="#D6D7D8"/>
<path d="M206.925 177.112C212.238 177.112 216.545 172.393 216.545 166.57C216.545 160.748 212.238 156.028 206.925 156.028C201.612 156.028 197.305 160.748 197.305 166.57C197.305 172.393 201.612 177.112 206.925 177.112Z" fill="#FDB4B4"/>
<path d="M211.967 154.263C212.428 155.291 211.697 156.574 210.729 157.006C209.762 157.438 208.669 157.263 207.637 157.083C206.605 156.904 205.511 156.733 204.546 157.173C203.298 157.741 202.594 159.168 201.988 160.492C200.856 162.964 199.724 165.436 198.593 167.908C198.04 169.115 197.474 170.377 197.463 171.728C197.444 174.209 199.239 176.191 200.205 178.434C201.381 181.165 201.284 184.511 199.952 187.155C198.621 189.799 196.088 191.672 193.352 192.036C192.633 192.132 191.871 192.121 191.224 191.763C190.577 191.405 190.083 190.622 190.203 189.839C190.437 188.306 192.574 187.948 192.967 186.455C193.172 185.675 192.809 184.843 192.32 184.234C191.83 183.625 191.212 183.15 190.745 182.52C189.669 181.068 189.598 178.826 190.578 177.295C191.154 176.395 192.046 175.726 192.418 174.706C192.735 173.836 192.62 172.858 192.5 171.93C192.345 170.738 192.191 169.546 192.036 168.354C191.856 166.963 191.679 165.522 192.035 164.173C192.851 161.08 196.037 159.628 197.906 157.144C198.774 155.99 199.358 154.601 200.249 153.468C201.744 151.566 204.097 150.516 206.38 150.734C208.662 150.953 210.814 152.433 211.986 154.59" fill="#2E2E41"/>
<path d="M210.448 154.458C209.978 154.643 209.804 155.314 209.939 155.84C210.074 156.367 210.428 156.785 210.753 157.201C214.42 161.904 215.272 169.018 212.837 174.6C212.19 176.085 211.327 177.482 210.978 179.082C210.723 180.247 210.737 181.524 210.148 182.532C209.547 183.558 208.358 184.246 208.24 185.458C208.165 186.236 208.598 186.992 209.178 187.448C209.758 187.904 210.466 188.113 211.163 188.283C212.974 188.725 214.826 188.966 216.681 189.002C217.285 189.014 217.909 189 218.464 188.735C219.019 188.471 219.493 187.899 219.499 187.236C219.504 186.715 219.23 186.234 219.195 185.715C219.09 184.158 221.002 183.33 221.374 181.823C221.619 180.832 221.136 179.813 220.623 178.955C220.109 178.097 219.522 177.196 219.535 176.17C219.547 175.187 220.11 174.322 220.328 173.369C220.631 172.051 220.259 170.672 219.891 169.375C219.577 168.272 219.264 167.168 218.951 166.065C218.618 164.892 218.285 163.72 217.951 162.547C217.37 160.499 216.76 158.393 215.501 156.75C214.243 155.108 212.158 154.032 210.3 154.702" fill="#2E2E41"/>
<path d="M217.003 195.31L216.344 195.099C217.717 189.938 214.755 180.305 214.726 180.209L215.376 179.966C215.501 180.37 218.437 189.922 217.003 195.31Z" fill="#3F3C57"/>
<path d="M216.673 201.239C218.258 201.239 219.542 199.831 219.542 198.095C219.542 196.358 218.258 194.951 216.673 194.951C215.089 194.951 213.804 196.358 213.804 198.095C213.804 199.831 215.089 201.239 216.673 201.239Z" fill="#3F3C57"/>
<path d="M197.823 209.226H196.083C195.893 209.226 195.74 209.057 195.74 208.849C195.74 208.641 195.893 208.473 196.083 208.473H197.823C198.303 208.473 198.753 208.268 199.092 207.896C199.43 207.525 199.616 207.03 199.615 206.505L199.594 194.761C199.594 192.21 197.701 190.135 195.373 190.135C193.046 190.135 191.152 192.21 191.152 194.76L191.173 205.753C191.175 206.825 191.973 207.704 192.951 207.713L194.146 207.723C194.335 207.724 194.488 207.894 194.486 208.102C194.485 208.309 194.331 208.475 194.143 208.475H194.14L192.946 208.465C191.593 208.454 190.489 207.238 190.486 205.754L190.465 194.761C190.465 191.795 192.667 189.382 195.373 189.382C198.079 189.382 200.281 191.795 200.281 194.76L200.302 206.504C200.303 207.23 200.046 207.914 199.578 208.428C199.109 208.942 198.486 209.226 197.823 209.226Z" fill="#3F3C57"/>
<path d="M194.143 209.433C194.815 209.433 195.36 208.835 195.36 208.099C195.36 207.362 194.815 206.765 194.143 206.765C193.471 206.765 192.926 207.362 192.926 208.099C192.926 208.835 193.471 209.433 194.143 209.433Z" fill="#3F3C57"/>
<path d="M196.083 210.183C196.755 210.183 197.3 209.586 197.3 208.849C197.3 208.113 196.755 207.515 196.083 207.515C195.411 207.515 194.866 208.113 194.866 208.849C194.866 209.586 195.411 210.183 196.083 210.183Z" fill="#3F3C57"/>
<path d="M125.817 189.669L125.158 189.458C126.531 184.296 123.603 174.515 123.573 174.418L124.397 175.099C124.523 175.503 127.251 184.281 125.817 189.669Z" fill="#3F3C57"/>
<path d="M102.64 190.586L103.3 190.375C101.926 185.214 104.888 175.581 104.918 175.485L104.212 176.002C104.087 176.406 101.206 185.198 102.64 190.586Z" fill="#3F3C57"/>
<path d="M125.487 195.598C127.072 195.598 128.356 194.19 128.356 192.454C128.356 190.717 127.072 189.31 125.487 189.31C123.903 189.31 122.618 190.717 122.618 192.454C122.618 194.19 123.903 195.598 125.487 195.598Z" fill="#3F3C57"/>
<path d="M105.699 209.92H103.959C103.769 209.92 103.615 209.752 103.615 209.544C103.615 209.336 103.769 209.167 103.959 209.167H105.699C106.178 209.167 106.629 208.963 106.967 208.591C107.306 208.219 107.492 207.725 107.491 207.2L107.47 195.455C107.47 192.904 105.576 190.829 103.249 190.829C100.921 190.829 99.0276 192.904 99.0276 195.455L99.0488 206.447C99.0508 207.52 99.8486 208.399 100.827 208.407L102.021 208.417C102.211 208.419 102.364 208.588 102.362 208.796C102.361 209.003 102.207 209.17 102.019 209.17H102.016L100.822 209.16C99.4683 209.149 98.3646 207.932 98.3619 206.449L98.3408 195.455C98.3408 192.489 100.542 190.076 103.249 190.076C105.955 190.076 108.157 192.489 108.157 195.455L108.178 207.198C108.179 207.925 107.922 208.608 107.453 209.122C106.985 209.637 106.362 209.92 105.699 209.92Z" fill="#3F3C57"/>
<path d="M102.019 210.127C102.691 210.127 103.236 209.53 103.236 208.794C103.236 208.057 102.691 207.46 102.019 207.46C101.347 207.46 100.802 208.057 100.802 208.794C100.802 209.53 101.347 210.127 102.019 210.127Z" fill="#3F3C57"/>
<path d="M103.959 210.878C104.631 210.878 105.176 210.281 105.176 209.544C105.176 208.807 104.631 208.21 103.959 208.21C103.286 208.21 102.741 208.807 102.741 209.544C102.741 210.281 103.286 210.878 103.959 210.878Z" fill="#3F3C57"/>
</g>
<path d="M951.409 84H791V168.487H951.409V84Z" fill="#E6E6E6"/>
<path d="M795.672 163.815H946.737V88.6721H795.672V163.815Z" fill="white"/>
<path d="M861.082 99.5737H807.353V153.303H861.082V99.5737Z" fill="#3F3D56"/>
<path d="M848.234 124.102C849.094 124.102 849.791 123.405 849.791 122.545C849.791 121.685 849.094 120.988 848.234 120.988C847.374 120.988 846.676 121.685 846.676 122.545C846.676 123.405 847.374 124.102 848.234 124.102Z" fill="#026667"/>
<path d="M842.393 118.652C843.253 118.652 843.951 117.954 843.951 117.094C843.951 116.234 843.253 115.537 842.393 115.537C841.533 115.537 840.836 116.234 840.836 117.094C840.836 117.954 841.533 118.652 842.393 118.652Z" fill="#026667"/>
<path d="M841.615 122.545C841.042 122.545 840.48 122.704 839.992 123.005C839.562 122.359 839.057 121.766 838.487 121.239C838.494 121.156 838.5 121.072 838.5 120.988C838.5 120.377 838.321 119.779 837.984 119.269C837.647 118.759 837.167 118.36 836.605 118.121C836.042 117.882 835.422 117.814 834.821 117.925C834.22 118.036 833.665 118.322 833.226 118.746C832.392 118.628 831.545 118.621 830.709 118.724C830.71 118.7 830.713 118.676 830.713 118.652C830.714 118.13 830.584 117.617 830.334 117.159C830.085 116.701 829.725 116.313 829.287 116.03C828.849 115.748 828.347 115.58 827.827 115.541C827.307 115.503 826.786 115.596 826.311 115.811C825.836 116.027 825.423 116.358 825.11 116.775C824.796 117.191 824.592 117.68 824.517 118.196C824.441 118.711 824.496 119.238 824.677 119.727C824.857 120.216 825.158 120.652 825.551 120.995C825.029 121.441 824.556 121.942 824.14 122.487C823.755 122.167 823.299 121.945 822.811 121.838C822.322 121.732 821.815 121.745 821.332 121.875C820.849 122.006 820.405 122.252 820.037 122.591C819.669 122.929 819.389 123.352 819.218 123.822C819.048 124.293 818.994 124.797 819.06 125.293C819.126 125.789 819.311 126.261 819.598 126.67C819.885 127.08 820.267 127.414 820.711 127.645C821.155 127.875 821.647 127.996 822.148 127.996L822.157 127.995C822.152 128.125 822.148 128.254 822.148 128.385C822.148 129.169 822.242 129.95 822.429 130.711C821.504 131.059 820.682 131.637 820.04 132.39C819.399 133.143 818.96 134.047 818.764 135.016C818.567 135.985 818.621 136.989 818.918 137.932C819.216 138.875 819.749 139.727 820.466 140.408C821.183 141.089 822.062 141.577 823.019 141.825C823.976 142.073 824.981 142.075 825.939 141.828C826.897 141.582 827.777 141.096 828.495 140.417C829.214 139.737 829.748 138.887 830.048 137.944C832.215 138.36 834.459 138.028 836.411 137C836.61 137.469 836.922 137.883 837.318 138.204C837.715 138.524 838.184 138.743 838.684 138.84C839.185 138.938 839.702 138.91 840.189 138.761C840.677 138.612 841.12 138.346 841.481 137.985C841.842 137.624 842.108 137.181 842.257 136.693C842.406 136.206 842.433 135.689 842.336 135.188C842.239 134.688 842.02 134.219 841.699 133.822C841.379 133.426 840.965 133.114 840.496 132.915C841.171 131.635 841.549 130.22 841.605 128.774L841.615 128.775C842.441 128.775 843.233 128.446 843.817 127.862C844.401 127.278 844.729 126.486 844.729 125.66C844.729 124.834 844.401 124.041 843.817 123.457C843.233 122.873 842.441 122.545 841.615 122.545Z" fill="#026667"/>
<path d="M840.836 98.4058H825.262V100.742H840.836V98.4058Z" fill="#E6E6E6"/>
<path d="M929.606 99.5737H875.876V153.303H929.606V99.5737Z" fill="#3F3D56"/>
<path d="M912.942 136.016C913.329 136.016 913.643 135.702 913.643 135.315C913.643 134.928 913.329 134.615 912.942 134.615C912.555 134.615 912.241 134.928 912.241 135.315C912.241 135.702 912.555 136.016 912.942 136.016Z" fill="#026667"/>
<path d="M910.314 133.563C910.701 133.563 911.015 133.249 911.015 132.862C911.015 132.475 910.701 132.162 910.314 132.162C909.927 132.162 909.613 132.475 909.613 132.862C909.613 133.249 909.927 133.563 910.314 133.563Z" fill="#026667"/>
<path d="M909.964 135.315C909.706 135.315 909.453 135.387 909.233 135.522C909.04 135.231 908.813 134.965 908.556 134.728C908.559 134.69 908.562 134.653 908.562 134.615C908.562 134.34 908.481 134.071 908.33 133.841C908.178 133.612 907.962 133.432 907.709 133.324C907.456 133.217 907.177 133.186 906.907 133.236C906.636 133.286 906.386 133.415 906.189 133.606C905.813 133.553 905.433 133.549 905.056 133.596C905.057 133.585 905.058 133.574 905.058 133.563C905.058 133.329 905 133.098 904.888 132.892C904.775 132.686 904.613 132.511 904.416 132.384C904.219 132.257 903.993 132.181 903.759 132.164C903.525 132.146 903.291 132.188 903.077 132.285C902.863 132.382 902.678 132.531 902.536 132.719C902.395 132.906 902.304 133.126 902.27 133.358C902.235 133.59 902.26 133.827 902.342 134.047C902.423 134.267 902.558 134.463 902.735 134.618C902.5 134.819 902.287 135.044 902.1 135.289C901.927 135.145 901.722 135.045 901.502 134.997C901.282 134.949 901.054 134.955 900.836 135.014C900.619 135.073 900.419 135.183 900.254 135.336C900.088 135.488 899.962 135.678 899.885 135.89C899.809 136.102 899.784 136.329 899.814 136.552C899.844 136.775 899.927 136.988 900.056 137.172C900.185 137.356 900.357 137.506 900.557 137.61C900.757 137.714 900.978 137.768 901.203 137.768L901.208 137.768C901.206 137.826 901.203 137.885 901.203 137.943C901.204 138.296 901.246 138.647 901.33 138.99C900.914 139.147 900.544 139.407 900.255 139.746C899.967 140.084 899.769 140.491 899.681 140.927C899.592 141.363 899.616 141.815 899.75 142.239C899.884 142.664 900.124 143.047 900.447 143.354C900.769 143.66 901.165 143.88 901.596 143.991C902.026 144.103 902.479 144.104 902.91 143.993C903.341 143.882 903.737 143.663 904.06 143.358C904.383 143.052 904.624 142.669 904.759 142.245C905.734 142.432 906.743 142.282 907.622 141.82C907.712 142.031 907.852 142.217 908.03 142.362C908.209 142.506 908.42 142.604 908.645 142.648C908.87 142.692 909.103 142.68 909.322 142.613C909.542 142.546 909.741 142.426 909.903 142.263C910.066 142.101 910.186 141.901 910.253 141.682C910.32 141.463 910.332 141.23 910.288 141.005C910.245 140.78 910.146 140.568 910.002 140.39C909.857 140.212 909.671 140.072 909.46 139.982C909.764 139.406 909.934 138.769 909.959 138.118L909.964 138.119C910.335 138.119 910.692 137.971 910.955 137.708C911.218 137.445 911.365 137.089 911.365 136.717C911.365 136.345 911.218 135.989 910.955 135.726C910.692 135.463 910.335 135.315 909.964 135.315Z" fill="#026667"/>
<path d="M918.441 122.717C918.828 122.717 919.141 122.403 919.141 122.016C919.141 121.629 918.828 121.315 918.441 121.315C918.054 121.315 917.74 121.629 917.74 122.016C917.74 122.403 918.054 122.717 918.441 122.717Z" fill="#026667"/>
<path d="M920.089 119.522C920.476 119.522 920.79 119.208 920.79 118.821C920.79 118.434 920.476 118.121 920.089 118.121C919.702 118.121 919.388 118.434 919.388 118.821C919.388 119.208 919.702 119.522 920.089 119.522Z" fill="#026667"/>
<path d="M917.633 119.149C917.563 118.901 917.425 118.677 917.236 118.502C917.463 118.237 917.658 117.946 917.817 117.635C917.854 117.628 917.891 117.62 917.927 117.61C918.192 117.536 918.429 117.385 918.609 117.177C918.789 116.969 918.903 116.712 918.938 116.439C918.973 116.167 918.927 115.89 918.805 115.643C918.684 115.396 918.492 115.191 918.255 115.052C918.204 114.676 918.104 114.309 917.957 113.96C917.968 113.957 917.979 113.955 917.989 113.952C918.215 113.889 918.422 113.77 918.59 113.606C918.758 113.442 918.882 113.239 918.951 113.015C919.02 112.791 919.031 112.553 918.985 112.323C918.938 112.093 918.834 111.878 918.683 111.699C918.531 111.52 918.338 111.381 918.119 111.296C917.9 111.211 917.664 111.182 917.431 111.213C917.198 111.243 916.977 111.331 916.787 111.469C916.597 111.607 916.445 111.79 916.345 112.002C916.088 111.831 915.813 111.687 915.526 111.573C915.618 111.367 915.659 111.143 915.645 110.918C915.632 110.693 915.564 110.475 915.449 110.282C915.333 110.089 915.173 109.926 914.981 109.808C914.789 109.69 914.572 109.62 914.348 109.604C914.123 109.588 913.898 109.626 913.691 109.715C913.485 109.804 913.302 109.941 913.16 110.116C913.018 110.29 912.92 110.496 912.874 110.717C912.828 110.937 912.836 111.165 912.897 111.382L912.899 111.386C912.842 111.4 912.785 111.413 912.728 111.429C912.389 111.525 912.062 111.661 911.756 111.835C911.492 111.477 911.141 111.191 910.737 111.005C910.332 110.819 909.887 110.739 909.444 110.772C909 110.806 908.572 110.951 908.199 111.195C907.827 111.439 907.523 111.774 907.316 112.168C907.108 112.561 907.004 113.001 907.013 113.446C907.022 113.891 907.145 114.327 907.368 114.712C907.592 115.096 907.909 115.418 908.291 115.647C908.673 115.875 909.107 116.003 909.552 116.018C909.636 117.007 910.054 117.938 910.737 118.659C910.558 118.802 910.417 118.987 910.326 119.198C910.236 119.409 910.198 119.639 910.217 119.868C910.236 120.096 910.311 120.317 910.435 120.51C910.559 120.703 910.728 120.862 910.929 120.975C911.129 121.087 911.353 121.148 911.583 121.153C911.812 121.158 912.039 121.107 912.244 121.004C912.449 120.901 912.626 120.749 912.758 120.562C912.891 120.374 912.975 120.157 913.005 119.93C913.641 120.066 914.3 120.057 914.933 119.905L914.934 119.909C914.984 120.086 915.068 120.252 915.182 120.397C915.296 120.542 915.438 120.662 915.598 120.753C915.759 120.843 915.936 120.9 916.118 120.922C916.301 120.944 916.487 120.929 916.664 120.879C916.841 120.829 917.007 120.745 917.151 120.631C917.296 120.517 917.417 120.376 917.507 120.215C917.597 120.054 917.654 119.878 917.676 119.695C917.697 119.512 917.683 119.326 917.633 119.149Z" fill="#026667"/>
<path d="M891.297 113.193C891.684 113.193 891.997 112.88 891.997 112.493C891.997 112.106 891.684 111.792 891.297 111.792C890.909 111.792 890.596 112.106 890.596 112.493C890.596 112.88 890.909 113.193 891.297 113.193Z" fill="#026667"/>
<path d="M887.714 113.48C888.101 113.48 888.414 113.167 888.414 112.78C888.414 112.393 888.101 112.079 887.714 112.079C887.326 112.079 887.013 112.393 887.013 112.78C887.013 113.167 887.326 113.48 887.714 113.48Z" fill="#026667"/>
<path d="M889.288 114.692C889.115 114.883 888.997 115.118 888.949 115.371C888.604 115.318 888.253 115.306 887.905 115.335C887.88 115.308 887.854 115.281 887.826 115.255C887.623 115.07 887.37 114.948 887.098 114.905C886.826 114.862 886.548 114.901 886.298 115.015C886.048 115.129 885.837 115.315 885.692 115.548C885.546 115.782 885.473 116.053 885.481 116.328C885.188 116.569 884.929 116.848 884.71 117.157C884.702 117.15 884.695 117.142 884.687 117.134C884.514 116.976 884.304 116.863 884.076 116.807C883.848 116.751 883.61 116.753 883.383 116.813C883.156 116.873 882.948 116.988 882.778 117.15C882.607 117.311 882.48 117.512 882.407 117.735C882.335 117.959 882.32 118.196 882.363 118.427C882.406 118.657 882.507 118.873 882.655 119.055C882.804 119.237 882.995 119.378 883.213 119.467C883.43 119.555 883.666 119.587 883.899 119.561C883.889 119.87 883.912 120.178 883.967 120.483C883.744 120.513 883.532 120.597 883.348 120.727C883.165 120.857 883.015 121.03 882.912 121.23C882.809 121.43 882.756 121.652 882.757 121.877C882.758 122.102 882.813 122.324 882.918 122.523C883.022 122.722 883.174 122.893 883.358 123.022C883.543 123.15 883.756 123.232 883.979 123.261C884.203 123.29 884.43 123.264 884.641 123.187C884.852 123.109 885.042 122.982 885.193 122.816L885.196 122.812C885.238 122.853 885.279 122.894 885.323 122.934C885.583 123.172 885.871 123.377 886.181 123.546C886.016 123.959 885.959 124.408 886.014 124.849C886.07 125.291 886.237 125.711 886.5 126.07C886.762 126.43 887.112 126.716 887.516 126.904C887.92 127.091 888.364 127.172 888.808 127.141C889.252 127.109 889.681 126.965 890.054 126.722C890.427 126.479 890.732 126.146 890.941 125.753C891.15 125.359 891.255 124.92 891.247 124.475C891.24 124.03 891.119 123.594 890.897 123.208C891.692 122.615 892.263 121.768 892.513 120.808C892.73 120.884 892.962 120.906 893.189 120.871C893.416 120.837 893.63 120.747 893.815 120.61C893.999 120.474 894.147 120.294 894.245 120.086C894.343 119.879 894.389 119.651 894.379 119.421C894.369 119.192 894.302 118.969 894.185 118.772C894.068 118.574 893.905 118.408 893.709 118.289C893.513 118.169 893.291 118.099 893.062 118.086C892.833 118.072 892.604 118.115 892.395 118.211C892.175 117.598 891.819 117.043 891.355 116.586L891.359 116.582C891.483 116.447 891.579 116.288 891.642 116.114C891.705 115.941 891.733 115.757 891.725 115.573C891.717 115.389 891.672 115.209 891.594 115.042C891.516 114.875 891.406 114.725 891.27 114.601C891.134 114.477 890.975 114.38 890.801 114.318C890.628 114.255 890.444 114.227 890.26 114.236C890.076 114.244 889.896 114.289 889.729 114.367C889.562 114.446 889.412 114.556 889.288 114.692Z" fill="#026667"/>
<path d="M909.36 98.4058H893.787V100.742H909.36V98.4058Z" fill="#E6E6E6"/>
<path d="M1052.84 242.383H1010.01V290.272H1052.84V242.383Z" fill="#CCCCCC"/>
<path d="M988.204 362.3H966.401L964.065 343.612H990.54L988.204 362.3Z" fill="#E6E6E6"/>
<path d="M1031.99 348.764L1031.25 358.822C1031.22 359.277 1031.28 359.735 1031.44 360.163C1031.6 360.591 1031.84 360.981 1032.17 361.306C1032.49 361.631 1032.87 361.883 1033.3 362.046C1033.73 362.209 1034.18 362.28 1034.64 362.252L1039.8 361.939C1040.04 361.925 1040.28 361.857 1040.49 361.743C1040.7 361.628 1040.88 361.468 1041.02 361.274C1041.16 361.081 1041.26 360.859 1041.31 360.623C1041.35 360.388 1041.35 360.145 1041.29 359.913L1038.42 348.442L1031.99 348.764Z" fill="#E6E6E6"/>
<path d="M1075.2 354.712C1081.28 356.134 1085.63 358.156 1088.48 360.892C1089.5 361.859 1090.82 362.429 1092.23 362.498C1094.02 362.592 1095.48 362.392 1096.58 361.901C1096.86 361.776 1097.1 361.579 1097.28 361.329C1097.46 361.079 1097.57 360.786 1097.6 360.479C1097.63 360.168 1097.58 359.853 1097.45 359.568C1097.32 359.283 1097.12 359.037 1096.87 358.857L1082.44 348.596L1076.32 351.046L1074.89 352.475C1074.74 352.63 1074.62 352.819 1074.55 353.026C1074.48 353.234 1074.46 353.454 1074.49 353.671C1074.52 353.888 1074.6 354.095 1074.72 354.275C1074.85 354.456 1075.01 354.605 1075.2 354.712Z" fill="#E6E6E6"/>
<path d="M1056.49 190.481L1015.27 190.1C1015.37 184.096 1016.77 178.2 1019.82 172.924C1021.83 169.459 1021.78 165.688 1021.3 162.511C1020.55 157.609 1022.29 152.593 1026.14 149.472C1029.09 147.083 1032.8 145.853 1036.59 146.014L1037.39 146.047C1040 146.156 1042.54 146.917 1044.78 148.262C1047.01 149.607 1048.87 151.492 1050.19 153.745C1051.53 156.149 1052.07 158.917 1051.73 161.649C1051.47 164.219 1052.1 166.815 1053.56 169.436C1056.08 175.192 1056.63 182.557 1056.49 190.481Z" fill="#2F2E41"/>
<path d="M1084.07 349.131L1075.98 351.242L1036.58 265.417L1039.04 349.131H1030.95C1022.31 309.746 1006.7 264.291 1013.72 249.94L1055.58 247.478L1084.07 349.131Z" fill="#026667"/>
<path d="M1036.23 176.074C1042.25 176.074 1047.13 171.192 1047.13 165.17C1047.13 159.148 1042.25 154.266 1036.23 154.266C1030.21 154.266 1025.33 159.148 1025.33 165.17C1025.33 171.192 1030.21 176.074 1036.23 176.074Z" fill="#FFB9B9"/>
<path d="M1045.73 185.22L1027.79 184.164C1029.55 180.129 1030.25 176.244 1029.55 172.557H1042.91C1042.88 175.388 1044.29 180.284 1045.73 185.22Z" fill="#FFB9B9"/>
<path d="M1056.98 250.643L1017.59 253.457L1021.63 183.637L1028.49 181.702L1036.23 183.461L1043.97 179.591L1048.89 181.35L1056.98 250.643Z" fill="#026667"/>
<path d="M1024.27 300.942L997.363 294.787C1005.36 268.254 1019.78 207.554 1015.13 185.923L1029.2 179.592L1024.27 300.942Z" fill="#E6E6E6"/>
<path d="M1011.26 224.263L1001.06 217.931L1009.76 192.453C1010.73 189.824 1012.58 187.617 1015.01 186.212L1017.94 184.516L1016.18 210.193L1011.26 224.263Z" fill="#E6E6E6"/>
<path d="M1080.37 295.139C1071.88 300.052 1050.65 302.791 1041.33 299.36C1040.65 275.387 1039.3 207.577 1043.62 178.888L1059.09 185.22L1057.69 204.214C1050.29 220.462 1071.77 277.055 1080.37 295.139Z" fill="#E6E6E6"/>
<path d="M1079.14 221.097L1069.65 217.931L1056.98 203.51L1059.09 185.219L1080.2 214.766L1079.14 221.097Z" fill="#E6E6E6"/>
<path d="M1049.38 234.788C1049.53 235.47 1049.95 236.063 1050.55 236.436C1051.14 236.809 1051.85 236.932 1052.54 236.779L1060.6 234.953L1059.43 229.807L1051.37 231.632C1050.69 231.787 1050.09 232.206 1049.72 232.798C1049.35 233.39 1049.23 234.106 1049.38 234.788Z" fill="#FFB9B9"/>
<path d="M1045.73 162.356C1039.67 159.866 1033.69 159.686 1027.79 162.004L1025.33 153.211H1047.84L1045.73 162.356Z" fill="#2F2E41"/>
<path d="M1056.63 228.836L1061.2 237.277C1068.9 235.132 1075.56 228.37 1081.96 220.394L1080.2 214.766L1069.29 217.58L1056.63 228.836Z" fill="#E6E6E6"/>
<path d="M1053.29 211.424H1051.88C1051.88 191.525 1047.79 177.657 1043.79 177.657L1043.44 176.25C1047.02 176.25 1049.31 182.022 1050.59 186.864C1052.33 193.428 1053.29 202.15 1053.29 211.424Z" fill="#3F3D56"/>
<path d="M1020.93 206.5H1019.52C1019.52 188.275 1023.65 176.954 1029.72 176.954L1029.37 178.361C1025.17 178.361 1020.93 187.062 1020.93 206.5Z" fill="#3F3D56"/>
<path d="M1052.59 215.293C1054.53 215.293 1056.1 213.719 1056.1 211.776C1056.1 209.833 1054.53 208.259 1052.59 208.259C1050.64 208.259 1049.07 209.833 1049.07 211.776C1049.07 213.719 1050.64 215.293 1052.59 215.293Z" fill="#3F3D56"/>
<path d="M1015.3 214.942H1013.9C1013.9 209.899 1016.74 205.796 1020.23 205.796V207.203C1017.51 207.203 1015.3 210.675 1015.3 214.942Z" fill="#3F3D56"/>
<path d="M1026.56 214.942H1025.15C1025.15 210.675 1022.94 207.203 1020.23 207.203V205.796C1023.72 205.796 1026.56 209.899 1026.56 214.942Z" fill="#3F3D56"/>
<path d="M1025.85 216.7C1026.63 216.7 1027.26 216.07 1027.26 215.293C1027.26 214.516 1026.63 213.886 1025.85 213.886C1025.08 213.886 1024.45 214.516 1024.45 215.293C1024.45 216.07 1025.08 216.7 1025.85 216.7Z" fill="#3F3D56"/>
<path d="M1014.6 216.7C1015.38 216.7 1016.01 216.07 1016.01 215.293C1016.01 214.516 1015.38 213.886 1014.6 213.886C1013.82 213.886 1013.19 214.516 1013.19 215.293C1013.19 216.07 1013.82 216.7 1014.6 216.7Z" fill="#3F3D56"/>
<path d="M997.011 202.355L1005.79 203.923L1025.85 232.452L1015.19 229.944L997.011 202.355Z" fill="#026667"/>
<path d="M995.454 202.006C995.32 202.008 995.19 202.046 995.076 202.116C994.961 202.186 994.868 202.285 994.806 202.403C994.743 202.521 994.713 202.654 994.72 202.788C994.726 202.922 994.768 203.051 994.842 203.163L1013.6 231.619C1013.7 231.778 1013.86 231.891 1014.05 231.935L1022.77 233.988C1022.92 234.022 1023.08 234.011 1023.22 233.956C1023.36 233.901 1023.48 233.805 1023.56 233.68C1023.65 233.554 1023.69 233.406 1023.69 233.255C1023.69 233.104 1023.64 232.957 1023.56 232.833L1002.96 203.554C1002.91 203.474 1002.84 203.406 1002.75 203.354C1002.67 203.302 1002.58 203.266 1002.48 203.249L995.595 202.019C995.548 202.01 995.501 202.006 995.454 202.006Z" fill="#3F3D56"/>
<path d="M1007.15 222.352L1007.68 227.602L1015.9 226.786C1016.6 226.717 1017.24 226.374 1017.68 225.833C1018.12 225.292 1018.33 224.596 1018.27 223.9C1018.2 223.204 1017.85 222.564 1017.31 222.12C1016.77 221.677 1016.08 221.467 1015.38 221.536L1007.15 222.352Z" fill="#FFB9B9"/>
<path d="M1000 221.744C1000.01 223.534 1000.73 225.247 1002 226.51C1003.27 227.772 1004.99 228.482 1006.78 228.484H1008.13L1009.12 220.278L1000.96 217.343L1000 221.744Z" fill="#E6E6E6"/>
<path d="M960.802 336.698C966.416 344.217 978.07 345.008 978.07 345.008C978.07 345.008 980.622 333.609 975.008 326.091C969.394 318.572 957.74 317.781 957.74 317.781C957.74 317.781 955.188 329.179 960.802 336.698Z" fill="#E6E6E6"/>
<path d="M989.402 339.525C985.697 344.486 978.007 345.008 978.007 345.008C978.007 345.008 976.324 337.487 980.028 332.525C983.733 327.564 991.423 327.042 991.423 327.042C991.423 327.042 993.107 334.563 989.402 339.525Z" fill="#E6E6E6"/>
<path d="M1153.29 362.167H951V363.039H1153.29V362.167Z" fill="#3F3D56"/>
<defs>
<clipPath id="clip0_604_299">
<rect width="237.875" height="224.658" fill="white" transform="translate(42 140)"/>
</clipPath>
</defs>
</svg>
